Coordinates
version=1
nRows=13
nColumns=40
inDegrees=yes

Units are S.I. units (second, meters, Newtons, ...)
Angles are in degrees.

endheader
time	pelvis_tilt	pelvis_list	pelvis_rotation	pelvis_tx	pelvis_ty	pelvis_tz	hip_flexion_r	hip_adduction_r	hip_rotation_r	knee_angle_r	knee_angle_r_beta	ankle_angle_r	subtalar_angle_r	mtp_angle_r	hip_flexion_l	hip_adduction_l	hip_rotation_l	knee_angle_l	knee_angle_l_beta	ankle_angle_l	subtalar_angle_l	mtp_angle_l	lumbar_extension	lumbar_bending	lumbar_rotation	arm_flex_r	arm_add_r	arm_rot_r	elbow_flex_r	pro_sup_r	wrist_flex_r	wrist_dev_r	arm_flex_l	arm_add_l	arm_rot_l	elbow_flex_l	pro_sup_l	wrist_flex_l	wrist_dev_l
     17.51750000	     -5.69584523	     -4.20583609	     -1.74580711	      1.13472800	      0.91372132	      0.44453853	     -3.68914284	     -1.96846313	    -14.56022062	     25.09405483	     25.09405483	     12.94190288	      2.58986666	    -17.58109959	     31.28248828	     -5.64624209	     -3.18344325	     28.93965934	     28.93965934	      7.01868475	    -17.66649051	      9.73986791	     -6.12909564	      5.21512176	      5.86196445	     36.32477495	    -17.17450083	     -5.81545048	     93.59333979	     44.33427267	      0.00000000	      0.00000000	    -16.68865784	     -5.81716606	     11.98653290	     25.79290289	     44.06999062	      0.00000000	      0.00000000
     17.52885714	     -5.67710223	     -4.09539136	     -1.86090242	      1.13571776	      0.91514650	      0.44183154	     -2.41367688	     -2.78997645	    -13.99151550	     28.37487868	     28.37487868	     10.78156113	      0.45848898	    -19.93935798	     30.50633902	     -5.40686773	     -3.42238282	     28.95927458	     28.95927458	      7.76917554	    -17.59032825	      9.52213027	     -6.06457921	      5.17192145	      5.52104981	     34.26483906	    -16.93502694	     -5.99493195	     93.45656439	     44.37762974	      0.00000000	      0.00000000	    -15.53091016	     -5.91768333	     11.82552622	     25.88689030	     44.17098771	      0.00000000	      0.00000000
     17.54021429	     -5.55523020	     -3.88487117	     -1.96983108	      1.13658884	      0.91664578	      0.43911512	     -0.97315374	     -3.81555196	    -13.57552574	     32.15703353	     32.15703353	      9.03910487	     -1.07176836	    -20.45601730	     29.50304455	     -5.06413241	     -3.77300348	     28.75757850	     28.75757850	      8.44810211	    -17.41261275	      9.22350646	     -6.14917723	      5.03396564	      5.00987496	     32.27987186	    -16.66031814	     -5.76860406	     93.16260293	     44.38038311	      0.00000000	      0.00000000	    -14.41543582	     -6.11384456	     11.69148828	     26.26714336	     44.22239823	      0.00000000	      0.00000000
     17.55157143	     -5.55215986	     -3.89239671	     -2.05672079	      1.13708118	      0.91794200	      0.43673372	      0.79101325	     -4.29852447	    -12.48994592	     35.97794006	     35.97794006	      6.66254662	     -4.24892969	    -21.00912875	     28.69852071	     -4.94552500	     -3.98186217	     28.60539139	     28.60539139	      8.94447409	    -17.28964016	      8.76392694	     -6.16207553	      5.10215597	      4.98957957	     29.71477190	    -16.80443416	     -6.07111524	     93.22779835	     44.40481200	      0.00000000	      0.00000000	    -13.03666587	     -6.37352760	     11.17799775	     26.85094553	     44.36211930	      0.00000000	      0.00000000
     17.56292857	     -5.43109191	     -3.66879997	     -2.10766226	      1.13744018	      0.91920630	      0.43419320	      2.60611233	     -5.24005695	    -11.96727842	     40.07675402	     40.07675402	      4.61695243	     -6.03400960	    -20.80111056	     27.70728461	     -4.58231418	     -4.35773420	     28.33327797	     28.33327797	      9.47919998	    -17.00939231	      8.43423491	     -6.29417557	      4.95155619	      4.49567484	     27.49740774	    -16.48400338	     -5.87687072	     92.59557209	     44.41650159	      0.00000000	      0.00000000	    -11.70669246	     -6.70748488	     10.95589348	     27.33006161	     44.42706282	      0.00000000	      0.00000000
     17.57428571	     -5.49848333	     -3.67025287	     -2.17745959	      1.13738301	      0.92015664	      0.43205563	      4.81440534	     -5.59767273	    -10.88566862	     44.18164147	     44.18164147	      2.52742147	     -8.77113226	    -19.55054865	     26.94966735	     -4.47627375	     -4.60814929	     28.04082836	     28.04082836	      9.90097035	    -16.72429010	      7.93595485	     -6.24394374	      5.01943692	      4.36202858	     25.04407576	    -16.52231121	     -6.05318470	     91.67140114	     44.45412476	      0.00000000	      0.00000000	    -10.23932391	     -7.05143838	     10.49352119	     28.02343936	     44.53732080	      0.00000000	      0.00000000
     17.58564286	     -5.35396910	     -3.73923408	     -2.24336062	      1.13723412	      0.92123291	      0.43018927	      6.86986806	     -5.77055956	     -9.81560629	     48.24420481	     48.24420481	      1.12034391	    -10.82829497	    -16.75325116	     26.03155540	     -4.49192626	     -4.92581108	     27.87603015	     27.87603015	     10.25598757	    -16.36175436	      7.03780989	     -6.47888760	      5.10745192	      4.29563137	     22.44090778	    -16.36434035	     -6.64967653	     90.50623074	     44.52294043	      0.00000000	      0.00000000	     -8.64324207	     -7.48626601	      9.61333303	     28.79670351	     44.72370852	      0.00000000	      0.00000000
     17.59700000	     -5.29950565	     -3.51027405	     -2.22815325	      1.13680143	      0.92216618	      0.42800381	      9.03829204	     -6.44182615	     -9.26281028	     52.07099655	     52.07099655	     -0.54868232	    -12.21659359	    -15.62460338	     25.13275928	     -4.12563724	     -5.26605857	     27.49406640	     27.49406640	     10.67179462	    -15.94737626	      6.68557731	     -6.63000822	      4.95442365	      3.83362351	     20.18398692	    -15.93741610	     -6.40457197	     89.31139118	     44.54946893	      0.00000000	      0.00000000	     -6.97688316	     -7.91224741	      9.30104996	     29.43364257	     44.80222144	      0.00000000	      0.00000000
     17.60835714	     -5.30353711	     -3.56282575	     -2.29336852	      1.13607643	      0.92296329	      0.42633253	     11.63350164	     -6.51096697	     -8.30505343	     56.36786386	     56.36786386	      0.91273934	    -11.90981673	     -6.12975523	     24.30164915	     -4.13722229	     -5.63461229	     27.07228105	     27.07228105	     10.56605194	    -15.61987226	      4.89126717	     -6.69916076	      5.05270419	      3.68217837	     18.02692299	    -15.66691292	     -6.87834633	     86.69672878	     44.72236616	      0.00000000	      0.00000000	     -5.26450178	     -7.97405624	      6.41171723	     30.12740927	     45.32136647	      0.00000000	      0.00000000
     17.61971429	     -5.20356674	     -3.46822572	     -2.31152676	      1.13530593	      0.92391146	      0.42456346	     13.74732537	     -6.75840699	     -7.64583414	     59.55397242	     59.55397242	     -0.26082149	    -13.02828601	     -5.72817569	     23.38721025	     -3.93757436	     -5.90828670	     26.71808673	     26.71808673	     11.02506735	    -15.21987441	      4.65619959	     -6.94448002	      5.04051667	      3.31837346	     15.74719152	    -15.32881442	     -6.62151956	     84.98127323	     44.76413679	      0.00000000	      0.00000000	     -3.44918992	     -8.52312941	      6.16523924	     30.84779954	     45.38645216	      0.00000000	      0.00000000
     17.63107143	     -5.20627783	     -3.44237725	     -2.41610335	      1.13434305	      0.92479029	      0.42309308	     16.02868647	     -6.76443150	     -6.87871965	     62.49132109	     62.49132109	     -0.96099673	    -13.95168781	     -4.87517154	     22.54431385	     -3.86752497	     -6.28419048	     26.28457926	     26.28457926	     11.48124602	    -14.67282272	      4.29303788	     -7.04185969	      5.04893894	      3.42904958	     13.49989958	    -15.34874935	     -6.67226561	     82.12533814	     44.85522025	      0.00000000	      0.00000000	     -1.48570514	     -8.97874018	      5.83713046	     31.73325227	     45.46422439	      0.00000000	      0.00000000
     17.64242857	     -5.07995854	     -3.50741146	     -2.46750153	      1.13337940	      0.92594737	      0.42167137	     18.08302967	     -6.68546190	     -6.33852893	     65.01926009	     65.01926009	     -1.09056633	    -14.25383303	     -3.51133328	     21.57242804	     -3.88144484	     -6.61647922	     25.86394155	     25.86394155	     11.83097283	    -14.10619322	      3.77400752	     -7.25108737	      5.18073257	      3.42933399	     11.68319498	    -15.01753126	     -6.95478457	     78.20138724	     44.99304185	      0.00000000	      0.00000000	      0.63977166	     -9.43959801	      5.44411255	     32.56448516	     45.55209763	      0.00000000	      0.00000000
     17.65378571	     -4.98147859	     -3.52026292	     -2.54366316	      1.13236649	      0.92712218	      0.42040063	     20.18454332	     -6.62857169	     -5.86255254	     67.27939083	     67.27939083	     -0.49756171	    -14.06829825	     -1.06868012	     20.54808529	     -3.82566626	     -6.93573751	     25.26077313	     25.26077313	     11.94926852	    -13.70105633	      2.92652182	     -7.39937863	      5.24708464	      2.64676108	     10.90294406	    -13.90768512	     -7.26458643	     72.80597657	     45.19066727	      0.00000000	      0.00000000	      2.39853976	    -10.00530084	      4.80012502	     33.03308492	     45.66609787	      0.00000000	      0.00000000
